<?xml version="1.0" encoding="UTF-8" standalone="no"?>
<svg
   xmlns:sketch="http://www.bohemiancoding.com/sketch/ns"
   xmlns:dc="http://purl.org/dc/elements/1.1/"
   xmlns:cc="http://creativecommons.org/ns#"
   xmlns:rdf="http://www.w3.org/1999/02/22-rdf-syntax-ns#"
   xmlns:svg="http://www.w3.org/2000/svg"
   xmlns="http://www.w3.org/2000/svg"
   xmlns:xlink="http://www.w3.org/1999/xlink"
   xmlns:sodipodi="http://sodipodi.sourceforge.net/DTD/sodipodi-0.dtd"
   xmlns:inkscape="http://www.inkscape.org/namespaces/inkscape"
   width="75.87355"
   height="86.459213"
   viewBox="0 0 75.87355 86.459213"
   version="1.1"
   id="svg14"
   sodipodi:docname="rose-right.svg"
   inkscape:version="0.92pre2 r">
  <metadata
     id="metadata18">
    <rdf:RDF>
      <cc:Work
         rdf:about="">
        <dc:format>image/svg+xml</dc:format>
        <dc:type
           rdf:resource="http://purl.org/dc/dcmitype/StillImage" />
        <dc:title>rose-left</dc:title>
      </cc:Work>
    </rdf:RDF>
  </metadata>
  <sodipodi:namedview
     pagecolor="#ffffff"
     bordercolor="#666666"
     borderopacity="1"
     objecttolerance="10"
     gridtolerance="10"
     guidetolerance="10"
     inkscape:pageopacity="0"
     inkscape:pageshadow="2"
     inkscape:window-width="1920"
     inkscape:window-height="1136"
     id="namedview16"
     showgrid="false"
     inkscape:snap-global="false"
     inkscape:zoom="7.7617302"
     inkscape:cx="48.547495"
     inkscape:cy="41.783352"
     inkscape:window-x="1280"
     inkscape:window-y="27"
     inkscape:window-maximized="1"
     inkscape:current-layer="svg14"
     fit-margin-top="0"
     fit-margin-left="0"
     fit-margin-right="0"
     fit-margin-bottom="0" />
  <!-- Generator: Sketch 3.4 (15588) - http://www.bohemiancoding.com/sketch -->
  <title
     id="title2">rose-left</title>
  <desc
     id="desc4">Created with Sketch.</desc>
  <defs
     id="defs6" />
  <g
     id="g12"
     sketch:type="MSPage"
     style="fill:none;fill-rule:evenodd;stroke:none;stroke-width:1"
     transform="matrix(-1,0,0,1,75.298192,0.57635751)">
    <g
       id="g10"
       sketch:type="MSLayerGroup"
       style="fill:#ff6066;fill-opacity:0.6">
      <g
         id="Page-1"
         sketch:type="MSShapeGroup">
        <path
           sodipodi:type="inkscape:offset"
           inkscape:radius="0.57688588"
           inkscape:original="M 45.740234 0 C 43.962669 1.1619556 43.491627 3.1143016 41.289062 4.0195312 C 41.140346 3.0576053 42.454297 2.2053328 41.654297 1.4765625 C 39.469682 2.5888291 38.957712 4.7148363 36.792969 5.8398438 C 36.980789 4.4065104 36.98117 2.3697488 36.359375 1.0351562 C 31.444632 3.938134 30.933754 13.158167 35.777344 17.865234 C 33.819011 22.276715 33.025261 27.392455 32.183594 32.480469 C 31.283594 30.447684 28.203455 29.238757 27.099609 26.832031 C 26.779095 26.132564 26.967959 24.931763 26.708984 24.226562 C 25.601933 21.215926 22.90052 19.603323 19.992188 18.972656 C 20.364624 21.601071 20.548597 25.40574 22.617188 26.685547 C 23.536417 27.253149 24.615245 26.731003 25.699219 27.169922 C 27.589604 27.936914 30.621024 31.389666 31.533203 33.863281 C 32.615896 36.798747 31.866747 38.633653 32.296875 41.041016 C 32.495593 42.15392 33.36873 42.97995 32.800781 44.111328 C 30.479627 41.92438 28.971705 39.803672 26.494141 38.513672 C 22.983884 36.686013 17.533994 37.643793 15.167969 34.619141 C 16.776302 30.256711 12.602774 27.024665 9.6386719 26.132812 C 8.0880308 32.740161 14.595413 32.724289 15.910156 36.648438 C 13.977464 35.869977 12.134274 37.203354 10.144531 37.302734 C 7.9310694 37.414215 6.1890925 36.378189 3.9160156 37.085938 C 2.5301182 37.517212 1.6070513 38.458969 0 39.257812 C 1.4711539 41.574079 4.4957832 41.927385 7.2675781 40.697266 C 9.5598858 39.679281 12.164023 35.61447 15.203125 37.800781 C 8.9903046 41.047759 5.986889 47.367007 8.6894531 53.607422 C 10.284325 57.288222 14.704607 59.994507 19.132812 58.945312 C 22.869352 58.060468 26.965335 51.433956 22.580078 48.785156 C 20.945463 47.798386 16.204187 49.263161 16.855469 51.638672 C 16.947136 51.975665 17.466186 53.281982 18.59375 52.693359 C 19.605929 51.991345 17.722816 51.643936 18.316406 50.550781 C 23.972175 47.411462 24.234114 55.278349 20.425781 57.160156 C 16.584755 59.058527 12.894561 56.885703 11.646484 55.595703 C 5.8868688 49.64514 10.464023 40.990648 15.953125 38.847656 C 21.08133 36.846722 26.672596 39.007564 30.59375 43.171875 C 33.48798 46.244942 35.125932 49.617111 37.560547 54.5 C 34.779137 54.287866 31.773057 56.276391 28.582031 56.173828 C 30.61216 59.178095 36.303876 59.758869 39.751953 57.408203 C 41.905158 60.272321 44.211369 62.884172 46.447266 65.611328 C 44.423548 65.583928 42.29361 64.29549 40.042969 65.683594 C 36.587199 63.523401 31.644512 65.779407 27.976562 67.857422 C 30.094511 70.492844 32.761398 70.60204 35.824219 69.646484 C 38.179988 68.911981 40.137559 66.841689 42.191406 66.392578 C 46.51897 65.445304 49.994302 68.916966 52.462891 71.033203 C 53.464815 71.891292 54.878816 72.677636 55.123047 73.828125 C 53.358944 73.982288 51.697406 73.053216 49.998047 74.082031 C 47.858303 73.381924 44.480538 71.869283 41.443359 73.445312 C 38.945923 74.740409 41.116727 77.066747 42.753906 77.792969 C 45.939163 79.20528 48.515485 75.932363 51.214844 75.017578 C 54.84369 73.788096 56.962699 75.780277 59.117188 77.039062 C 62.336419 78.918321 65.231861 80.510944 68.279297 82.193359 C 70.385066 83.357225 71.978395 85.376037 74.720703 85.304688 C 70.300831 79.847191 60.18116 78.792198 57.525391 71.53125 C 56.879878 69.767294 57.286112 68.334112 57.263672 67.421875 C 57.22457 65.891712 56.561808 64.646401 56.767578 63.369141 C 56.99386 61.968297 57.898608 60.317015 58.951172 59.160156 C 63.302454 54.383652 71.953015 56.679571 72.779297 63.189453 C 73.034425 65.205038 71.667798 68.86883 70.115234 69.476562 C 68.260746 70.204696 65.598818 69.328955 64.714844 67.589844 C 64.625741 66.482036 66.432709 66.523516 66.417969 65.460938 C 59.978225 65.736774 65.878535 72.359946 70.396484 70.638672 C 72.515074 69.830272 73.977374 65.58002 73.654297 62.734375 C 72.973528 56.730938 66.183874 53.443346 60.660156 56.048828 C 58.687079 56.979539 57.340696 59.262618 55.728516 62.146484 C 55.410567 61.045047 54.688212 60.599797 54.525391 59.246094 C 57.520904 56.76356 59.197637 51.655258 57.054688 47.345703 C 53.847636 48.965688 53.366727 53.92787 53.253906 58.080078 C 50.763521 55.875293 49.983654 50.879995 46.4375 50.396484 C 45.876603 54.370958 49.132763 59.041047 52.087891 58.361328 C 55.973148 61.217802 55.040795 67.877191 56.818359 72.685547 C 54.378615 71.264954 51.648628 68.892087 49.119141 66.441406 C 47.161448 64.54431 43.099299 60.799613 42.246094 58.525391 C 41.403786 56.279835 41.117558 51.345372 42.599609 49.849609 C 43.157301 49.285831 44.160025 49.289851 44.818359 48.822266 C 47.17541 47.145584 49.346885 42.304755 46.505859 40.560547 C 43.863552 41.396977 43.356881 44.960127 42.322266 47.707031 C 41.353035 50.276201 40.015124 52.730553 40.691406 56.199219 C 38.367688 53.615397 36.601012 50.12121 35.232422 45.980469 C 38.901653 43.132914 41.372827 39.558462 40.150391 33.748047 C 36.979237 35.647055 35.43111 39.58014 33.980469 41.863281 C 32.547777 38.701666 33.764824 35.762609 33.171875 32.486328 C 35.205208 29.372491 36.414043 25.758422 39.871094 23.505859 C 41.960196 24.800955 47.172697 25.502266 49.308594 22.703125 C 50.27462 22.816518 51.342548 23.056685 51.640625 22.140625 C 49.614984 22.008122 48.408313 20.317721 46.707031 20.140625 C 43.782031 19.835484 41.86834 21.757734 40.400391 22.642578 C 39.608083 23.120993 38.61845 23.21052 37.949219 23.724609 C 35.957552 25.255409 35.638582 27.610779 34.132812 28.326172 C 34.169993 24.398839 35.347296 21.161335 36.824219 18.105469 C 45.027424 18.049409 51.545984 11.350619 47.572266 4.4667969 C 47.044702 5.2063969 46.097857 6.7287324 45.402344 6.7089844 C 45.669656 4.6806585 46.315234 1.8862667 45.740234 0 z M 44.617188 2.4804688 C 45.630008 4.6973576 44.086669 7.0152719 43.466797 8.8945312 C 45.088591 9.1480721 45.952044 7.2418414 47.382812 6.7226562 C 47.729608 8.3222563 47.934134 9.948308 47.46875 11.121094 C 46.579647 13.357731 41.527083 16.886847 38.34375 17.248047 C 35.343109 17.590136 33.436959 13.521675 33.152344 10.154297 C 32.915165 7.3379565 34.387269 4.5651307 35.880859 3.1152344 C 36.269965 4.9970418 35.476502 6.1609092 35.847656 8.03125 C 38.389322 7.2661685 38.301803 4.9088056 40.242188 3.78125 C 40.474882 5.0413093 39.723728 5.7059199 40.333984 7.1953125 C 41.997446 5.7670755 42.634495 3.7163205 44.617188 2.4804688 z M 21.089844 20.427734 C 23.389844 21.322134 25.380709 22.71875 25.996094 26.361328 C 22.728145 27.240439 21.009714 23.931437 21.089844 20.427734 z M 45.583984 21.453125 C 46.951292 21.365293 48.153385 21.666318 48.261719 22.464844 C 46.926462 23.83957 42.785857 24.299057 41.914062 22.769531 C 42.683934 22.017827 44.216677 21.540957 45.583984 21.453125 z M 10.267578 27.701172 C 11.914373 28.92938 14.826882 29.741373 14.539062 33.050781 C 12.551241 32.379981 10.256038 30.562106 10.267578 27.701172 z M 39.435547 35.884766 C 39.734906 39.9497 38.078065 42.832119 34.949219 44.820312 C 35.008193 40.971971 36.349009 37.899714 39.435547 35.884766 z M 6.5859375 37.703125 C 7.1796474 37.725949 7.713712 37.837323 8.0996094 38.041016 C 7.5284555 40.212038 3.8796174 40.02359 2.0917969 39.734375 C 2.4937199 38.357419 4.8048077 37.634653 6.5859375 37.703125 z M 46.613281 42.007812 C 47.353025 45.287279 45.544842 47.024503 43.248047 48.464844 C 43.183303 45.714755 44.606871 42.849975 46.613281 42.007812 z M 56.925781 48.849609 C 57.479627 52.419565 57.125231 56.462561 54.306641 57.335938 C 54.428436 54.159671 54.336038 49.881609 56.925781 48.849609 z M 47.414062 52.371094 C 49.09355 52.982012 50.121274 54.652995 50.757812 56.962891 C 48.598839 57.134891 48.156371 54.508353 47.414062 52.371094 z M 37.607422 55.601562 C 38.301803 55.736883 38.891977 56.030866 39.291016 56.539062 C 37.159605 58.559744 33.320843 57.683528 31.021484 57.058594 C 32.517158 56.205283 35.524279 55.195601 37.607422 55.601562 z M 37.027344 65.777344 C 37.804197 65.87906 38.50601 66.156739 39.046875 66.660156 C 37.077003 68.348943 32.375811 69.81324 30.302734 68.277344 C 31.688311 66.751321 34.696785 65.472195 37.027344 65.777344 z M 45.193359 73.927734 C 46.545523 74.062707 47.955018 74.499871 48.888672 74.597656 C 47.729057 76.729819 42.766126 77.761752 41.839844 75.068359 C 42.545613 73.958641 43.841196 73.792762 45.193359 73.927734 z "
           xlink:href="#rose-left"
           style="fill:#ff5f66;fill-opacity:0.6;stroke:none;stroke-opacity:0.6"
           id="path4504"
           d="m 45.726562,-0.57617188 a 0.57694357,0.57694357 0 0 0 -0.302734,0.09375 C 44.43072,0.16675107 43.828265,1.0106348 43.228516,1.7382812 42.927731,2.1032084 42.63077,2.4402622 42.287109,2.7363281 42.377594,2.5393987 42.478732,2.3419567 42.490234,2.0703125 42.50484,1.7253932 42.342467,1.3236131 42.042969,1.0507812 A 0.57694357,0.57694357 0 0 0 41.392578,0.96289062 C 40.184072,1.5781848 39.443829,2.4731713 38.771484,3.2851562 38.341053,3.8049848 37.902111,4.2619366 37.414062,4.6757812 37.477743,3.3753087 37.425304,1.955394 36.882812,0.79101562 A 0.57694357,0.57694357 0 0 0 36.066406,0.5390625 C 33.386302,2.1221126 31.97472,5.3489341 31.832031,8.75 c -0.13731,3.272859 0.929984,6.739716 3.292969,9.21875 -1.726741,4.032857 -2.519584,8.563524 -3.267578,13.085938 -0.532443,-0.609925 -1.135456,-1.168275 -1.767578,-1.699219 -1.016228,-0.85357 -1.984381,-1.711856 -2.466797,-2.763672 h 0.002 C 27.534699,26.39473 27.481922,25.969561 27.457031,25.5 27.432141,25.030439 27.431657,24.522004 27.25,24.027344 26.061066,20.794026 23.150305,19.066353 20.115234,18.408203 a 0.57694357,0.57694357 0 0 0 -0.693359,0.644531 c 0.182645,1.28899 0.319303,2.916268 0.685547,4.417969 0.366244,1.501702 0.96173,2.934629 2.207031,3.705078 0.612741,0.378353 1.255248,0.381781 1.787109,0.376953 0.531862,-0.0048 0.974346,-0.01226 1.38086,0.152344 0.765287,0.310503 1.993156,1.322488 3.066406,2.550781 1.073251,1.228294 2.028898,2.682719 2.44336,3.806641 0.512893,1.39059 0.588073,2.489121 0.589843,3.587891 0.0018,1.09877 -0.08324,2.206438 0.146485,3.492187 0.120717,0.676068 0.41493,1.196065 0.564453,1.619141 0.0021,0.006 0.0018,0.0097 0.0039,0.01563 -1.793799,-1.825512 -3.296944,-3.608998 -5.537109,-4.775391 -1.900212,-0.989368 -4.19142,-1.192953 -6.257813,-1.554687 -1.968589,-0.344614 -3.65706,-0.838468 -4.707031,-2.023438 0.658592,-2.217079 -0.0013,-4.229917 -1.232422,-5.716797 -1.305315,-1.576466 -3.163179,-2.647152 -4.7578125,-3.126953 a 0.57694357,0.57694357 0 0 0 -0.7285156,0.421875 c -0.4081543,1.739163 -0.2917379,3.121029 0.171875,4.232422 0.4636129,1.111393 1.2522931,1.922458 2.0859371,2.607422 1.326472,1.089895 2.70446,1.917651 3.509766,3.054687 -0.674078,-0.03238 -1.332172,0.03225 -1.941406,0.191407 -0.990607,0.258779 -1.911756,0.594951 -2.78711,0.638671 C 9.1057604,36.777405 8.1670623,36.561422 7.1425781,36.400391 6.1180939,36.23936 4.9969033,36.145094 3.7441406,36.535156 2.2001292,37.015633 1.268209,37.984594 -0.25585938,38.742188 a 0.57694357,0.57694357 0 0 0 -0.23046874,0.824218 C 0.33806044,40.86437 1.6255464,41.627424 3.046875,41.875 c 1.4213286,0.247576 2.9793507,0.0045 4.4550781,-0.650391 1.3323988,-0.591701 2.5324109,-1.876923 3.7714849,-2.695312 0.619536,-0.409194 1.227396,-0.696706 1.802734,-0.769531 0.316775,-0.0401 0.631584,-0.0046 0.957031,0.0957 -5.77989,3.494347 -8.5523738,9.793709 -5.8730468,15.980469 1.7084584,3.942945 6.3769068,6.790281 11.1054688,5.669921 2.136499,-0.505941 4.149556,-2.48886 5.162109,-4.742187 0.506277,-1.126664 0.758707,-2.339299 0.558594,-3.496094 -0.200113,-1.156795 -0.88597,-2.238776 -2.107422,-2.976562 -0.568345,-0.343094 -1.269115,-0.426292 -2.005859,-0.386719 -0.736744,0.03957 -1.515816,0.217996 -2.232422,0.513672 -0.716606,0.295676 -1.374808,0.705343 -1.839844,1.265625 -0.465035,0.560281 -0.715963,1.326831 -0.501953,2.107422 0.06866,0.252428 0.225961,0.707813 0.621094,1.121093 0.197566,0.20664 0.469774,0.401456 0.818359,0.476563 0.348585,0.07511 0.747462,0.01247 1.123047,-0.183594 a 0.57694357,0.57694357 0 0 0 0.06055,-0.03711 c 0.170094,-0.117972 0.317058,-0.24885 0.423828,-0.429688 0.10677,-0.180837 0.15009,-0.421366 0.117188,-0.617187 -0.0658,-0.391642 -0.2787,-0.572209 -0.416016,-0.730469 -0.137316,-0.15826 -0.231337,-0.285911 -0.257813,-0.353516 -0.0074,-0.01878 0.01411,-0.04622 0.0098,-0.05859 1.191979,-0.610245 2.032819,-0.670639 2.541016,-0.453125 0.541172,0.231628 0.885023,0.76757 1.011718,1.541015 0.253392,1.546891 -0.568417,3.779032 -2.18164,4.576172 -1.776353,0.877936 -3.490221,0.813847 -4.941406,0.378906 -1.451186,-0.43494 -2.628946,-1.269043 -3.167969,-1.826172 -2.7294925,-2.819982 -2.9880451,-6.195814 -1.933594,-9.210937 1.054451,-3.015123 3.485075,-5.604036 6.035156,-6.599609 4.864904,-1.898199 10.209918,0.144083 14.011719,4.18164 a 0.57694357,0.57694357 0 0 0 0,0.002 c 2.655825,2.819931 4.273763,6.016512 6.478516,10.4375 -1.211787,0.08206 -2.408983,0.375634 -3.595703,0.738282 -1.497637,0.45766 -2.986978,0.900764 -4.457032,0.853515 a 0.57694357,0.57694357 0 0 0 -0.496093,0.898438 c 1.145442,1.695072 3.23953,2.636768 5.470703,2.876953 2.054754,0.221193 4.239288,-0.181742 6.03125,-1.234375 1.771234,2.322466 3.620933,4.483135 5.443359,6.669922 -0.541702,-0.104832 -1.02888,-0.177052 -1.636719,-0.263672 -1.029313,-0.146683 -2.184613,-0.06418 -3.335937,0.527344 -1.853788,-1.032287 -4.022012,-0.998954 -6.132813,-0.449219 -2.21185,0.576052 -4.399186,1.682768 -6.251953,2.732422 a 0.57694357,0.57694357 0 0 0 -0.164062,0.863281 c 1.130601,1.406838 2.470573,2.186311 3.916015,2.447266 1.445442,0.260955 2.969916,0.02507 4.552735,-0.46875 1.281574,-0.399581 2.397501,-1.134934 3.435547,-1.798828 1.038045,-0.663895 1.999242,-1.248198 2.882812,-1.441407 1.988466,-0.435261 3.772016,0.133357 5.416016,1.103516 1.644,0.970159 3.106343,2.337649 4.357422,3.410156 0.536672,0.459629 1.136485,0.869241 1.607421,1.283203 0.162764,0.143073 0.1772,0.272692 0.298829,0.41211 -0.460813,-0.04694 -0.893701,-0.06287 -1.400391,-0.113282 -0.805107,-0.0801 -1.702857,-0.0082 -2.591797,0.427735 -2.095588,-0.703981 -5.570444,-2.235298 -8.824219,-0.546875 -0.717335,0.371989 -1.191968,0.880127 -1.367187,1.470703 -0.17522,0.590576 -0.03744,1.189198 0.226562,1.695312 0.528008,1.012229 1.541516,1.803335 2.482422,2.220703 1.796266,0.796447 3.483226,0.252327 4.923828,-0.537109 1.440603,-0.789436 2.752585,-1.810575 3.957032,-2.21875 1.692412,-0.573403 2.945368,-0.397445 4.103515,0.06641 1.158148,0.463851 2.201695,1.251544 3.322266,1.90625 3.226743,1.883645 6.12689,3.47997 9.173828,5.16211 0.983204,0.54342 1.899781,1.328691 2.951172,2 1.051391,0.671308 2.269679,1.22107 3.785156,1.18164 a 0.57694357,0.57694357 0 0 0 0.433594,-0.939453 c -2.334016,-2.881957 -6.04561,-4.514287 -9.433594,-6.353515 -3.387983,-1.839228 -6.420139,-3.836965 -7.669922,-7.253907 a 0.57694357,0.57694357 0 0 0 0,-0.002 C 57.482392,69.73613 57.866858,68.506399 57.839844,67.408203 a 0.57694357,0.57694357 0 0 0 0,-0.002 c -0.04315,-1.688588 -0.667421,-2.918221 -0.501953,-3.945312 0.19906,-1.232322 1.059653,-2.835655 2.039062,-3.91211 4.032971,-4.427087 12.064993,-2.314848 12.830078,3.712891 0.105981,0.83728 -0.142992,2.212126 -0.617187,3.382812 -0.474196,1.170687 -1.222185,2.113545 -1.685547,2.294922 -0.766605,0.300995 -1.771296,0.279221 -2.666016,-0.02734 -0.840508,-0.28799 -1.534446,-0.830508 -1.912109,-1.470703 0.01056,-0.02864 5.62e-4,-0.06586 0.04102,-0.109375 0.0779,-0.0838 0.250527,-0.199511 0.466796,-0.328125 0.21627,-0.128613 0.474313,-0.26981 0.714844,-0.505859 0.240532,-0.236049 0.451264,-0.615873 0.445313,-1.044922 a 0.57694357,0.57694357 0 0 0 -0.601563,-0.568359 c -1.712314,0.07334 -2.820325,0.584489 -3.232422,1.509765 -0.412096,0.925276 2.15e-4,1.945051 0.695313,2.775391 0.695097,0.83034 1.728159,1.550354 2.916015,1.96875 1.187856,0.418396 2.546534,0.528074 3.830078,0.03906 1.332613,-0.50849 2.254762,-1.915401 2.876954,-3.517578 0.622191,-1.602177 0.924222,-3.438489 0.748046,-4.990234 -0.726498,-6.406709 -7.954466,-9.905754 -13.8125,-7.142578 -1.94956,0.919618 -3.243273,2.98898 -4.628906,5.425781 -0.07719,-0.133115 -0.147771,-0.329282 -0.216797,-0.449219 -0.194557,-0.338056 -0.317707,-0.687974 -0.402343,-1.132812 3.013454,-2.742684 4.607428,-7.852619 2.404296,-12.283203 a 0.57694357,0.57694357 0 0 0 -0.77539,-0.257813 c -1.804754,0.911639 -2.799496,2.735908 -3.357422,4.78125 -0.425922,1.561419 -0.580691,3.261251 -0.669922,4.917969 -0.694391,-0.958788 -1.339609,-2.078008 -2.03125,-3.232422 -0.973476,-1.624823 -2.18974,-3.195738 -4.220703,-3.472656 a 0.57694357,0.57694357 0 0 0 -0.648437,0.492187 c -0.306403,2.171145 0.412519,4.448294 1.605468,6.140625 1.111293,1.576492 2.707793,2.661335 4.378906,2.47461 1.664525,1.299645 2.368131,3.443122 2.824219,5.96289 0.374654,2.069868 0.669822,4.302764 1.216797,6.419922 -2.059972,-1.396699 -4.266277,-3.247868 -6.371094,-5.287109 -0.98582,-0.955307 -2.482635,-2.357952 -3.832031,-3.796875 -1.349395,-1.438924 -2.544926,-2.955504 -2.902344,-3.908203 -0.3799,-1.012798 -0.666288,-2.778565 -0.658203,-4.414063 0.0081,-1.635498 0.376144,-3.142958 0.88086,-3.652344 0.156797,-0.158508 0.446499,-0.282542 0.835937,-0.40625 0.389439,-0.123707 0.864106,-0.242328 1.306641,-0.55664 1.324025,-0.941842 2.489529,-2.641051 3.011718,-4.414063 0.261095,-0.886505 0.359051,-1.797171 0.171876,-2.65039 -0.187176,-0.85322 -0.687767,-1.64471 -1.527344,-2.160157 a 0.57694357,0.57694357 0 0 0 -0.476563,-0.05859 c -1.535742,0.486143 -2.432998,1.76961 -3.048828,3.175781 -0.61583,1.406171 -1.000744,2.992835 -1.5,4.318359 -0.770121,2.041383 -1.789535,4.185395 -1.791015,6.861328 -1.643788,-2.236277 -2.982906,-5.021053 -4.074219,-8.236328 1.722065,-1.389393 3.217287,-2.955839 4.130859,-4.910156 0.976717,-2.089395 1.298264,-4.584675 0.666016,-7.589844 a 0.57694357,0.57694357 0 0 0 -0.861328,-0.375 c -2.931022,1.755208 -4.421983,4.866565 -5.689454,7.136719 -0.256893,-1.036011 -0.362125,-2.070209 -0.326171,-3.154297 0.04777,-1.440482 0.176234,-2.971086 -0.08008,-4.611328 1.968462,-3.071728 3.187353,-6.35788 6.226563,-8.460938 1.189218,0.624121 2.835442,1.064894 4.591797,1.052735 1.822597,-0.01262 3.704598,-0.535677 4.939453,-1.921875 0.397752,0.05369 0.814023,0.130519 1.263672,0.08789 0.273479,-0.02593 0.562861,-0.09631 0.826172,-0.271484 0.26331,-0.175173 0.475808,-0.460519 0.583984,-0.792969 a 0.57694357,0.57694357 0 0 0 -0.511719,-0.753906 c -0.860819,-0.05631 -1.570038,-0.446721 -2.328125,-0.902344 -0.758086,-0.455622 -1.557358,-0.989039 -2.582031,-1.095703 -3.199501,-0.333777 -5.322631,1.773449 -6.664062,2.582032 a 0.57694357,0.57694357 0 0 0 -0.002,0 c -0.637607,0.385003 -1.642451,0.457389 -2.503906,1.11914 -1.097382,0.843451 -1.717428,1.899873 -2.234375,2.769531 -0.189644,0.319038 -0.361438,0.566668 -0.535156,0.816407 0.266312,-3.043236 1.201678,-5.685564 2.404297,-8.214844 4.090564,-0.13547 7.761135,-1.81313 9.972656,-4.417969 2.286161,-2.692753 2.962834,-6.4126012 0.867188,-10.0429686 a 0.57694357,0.57694357 0 0 0 -0.96875,-0.046875 C 46.845951,4.4919426 46.510301,4.987976 46.177734,5.4042969 46.472262,3.6041082 46.816517,1.5495136 46.292969,-0.16796875 A 0.57694357,0.57694357 0 0 0 45.726562,-0.57617188 Z M 44.251953,3.5273438 C 44.36288,4.2124972 44.330477,4.9088164 44.103516,5.6445312 43.78739,6.669282 43.250418,7.705009 42.917969,8.7128906 a 0.57694357,0.57694357 0 0 0 0.458984,0.7519532 c 1.044314,0.1632613 1.863561,-0.3896891 2.494141,-0.9277344 0.397104,-0.3388313 0.728732,-0.5472798 1.076172,-0.8007813 0.202399,1.2340711 0.286807,2.4097339 -0.01563,3.1718749 h 0.002 c -0.344457,0.86652 -1.772648,2.330808 -3.492188,3.501953 -1.719539,1.171146 -3.745601,2.1049 -5.162109,2.265625 -1.230937,0.140334 -2.242113,-0.602368 -3.0625,-1.892578 -0.820388,-1.29021 -1.355387,-3.082312 -1.490235,-4.677734 -0.164807,-1.9569754 0.603787,-3.9538607 1.578126,-5.386719 -0.02176,0.2505813 0.02969,0.519826 -0.0059,0.78125 -0.10317,0.7587846 -0.222879,1.6080123 -0.01758,2.6425781 a 0.57694357,0.57694357 0 0 0 0.732422,0.4414063 c 1.429176,-0.4302045 2.183174,-1.3719802 2.740234,-2.2265625 0.290665,-0.4459075 0.546046,-0.8564793 0.833985,-1.2207031 -0.01083,0.062193 -9.16e-4,0.1070048 -0.01172,0.1738281 -0.0885,0.5474473 -0.123417,1.2541221 0.224609,2.1035156 a 0.57694357,0.57694357 0 0 0 0.908203,0.21875 c 0.907655,-0.7793057 1.508291,-1.6954502 2.113282,-2.5273437 0.430063,-0.5913585 0.897043,-1.1105887 1.429687,-1.578125 z M 21.769531,21.382812 c 1.638999,0.783351 2.908649,1.98497 3.490235,4.5 -1.099647,0.116363 -1.887274,-0.321329 -2.503907,-1.18164 -0.580397,-0.809757 -0.880035,-2.027794 -0.986328,-3.31836 z m 23.851563,0.646485 c 0.630786,-0.04052 1.215431,0.01785 1.589844,0.144531 0.144969,0.04905 0.113874,0.09556 0.185546,0.142578 -0.611082,0.389984 -1.540311,0.742823 -2.523437,0.814453 -0.603304,0.04396 -1.188471,2.61e-4 -1.630859,-0.125 -0.149431,-0.04231 -0.168415,-0.119953 -0.279297,-0.175781 0.715657,-0.399572 1.688336,-0.73848 2.658203,-0.800781 z m -34.53711,6.902344 c 0.584095,0.349926 1.192128,0.691765 1.669922,1.101562 0.600937,0.515415 0.941953,1.183405 1.080078,2.046875 -0.630317,-0.324341 -1.252312,-0.72382 -1.755859,-1.273437 -0.477959,-0.521688 -0.788044,-1.167057 -0.994141,-1.875 z m 27.720704,8.240234 c -0.09511,2.715442 -1.180432,4.762494 -3.142579,6.34375 0.271078,-2.620046 1.260519,-4.739599 3.142579,-6.34375 z M 6.5644531,38.279297 c 0.2468337,0.0095 0.3798027,0.08325 0.5839844,0.125 -0.10255,0.114226 -0.1343605,0.275566 -0.2832031,0.369141 -0.3546775,0.222978 -0.8497046,0.380672 -1.4023438,0.466796 -0.7755211,0.120859 -1.6057328,0.08474 -2.3574218,0.01563 0.2372179,-0.203458 0.5523481,-0.391425 0.9316406,-0.544921 0.7604633,-0.307753 1.7242085,-0.462516 2.5273437,-0.431641 z m 39.5371089,4.794922 c 0.0605,1.003822 -0.08413,1.853332 -0.519531,2.542969 -0.380846,0.603227 -0.968131,1.125657 -1.623047,1.623046 0.258293,-1.733107 1.076529,-3.301992 2.142578,-4.166015 z m 10.328126,6.769531 c 0.153144,1.453963 0.175832,2.9252 -0.109376,4.126953 -0.25391,1.069879 -0.686454,1.887723 -1.363281,2.392578 0.04425,-1.339831 0.05934,-2.753085 0.298828,-3.96289 0.221835,-1.120647 0.582213,-2.003522 1.173829,-2.556641 z m -7.859376,4.039062 c 0.506474,0.544374 0.878502,1.372046 1.216797,2.273438 -0.0058,-0.004 -0.0157,-0.0017 -0.02148,-0.0059 -0.25366,-0.181662 -0.488083,-0.48224 -0.699219,-0.884766 -0.18932,-0.360935 -0.337216,-0.913119 -0.496094,-1.382813 z m -12.607421,2.244141 c 0.557318,-0.05264 1.084015,-0.0469 1.535156,0.04102 0.293443,0.05719 0.434619,0.239405 0.654297,0.355469 -0.834803,0.470819 -1.810925,0.723959 -2.916016,0.691406 -0.764213,-0.02251 -1.536154,-0.138961 -2.273437,-0.28711 0.969394,-0.357933 1.956825,-0.70225 3,-0.800781 z m 0.990234,10.222656 c 0.379821,0.04973 0.715832,0.155521 1.023437,0.298829 -0.913898,0.598472 -2.110256,1.172906 -3.392578,1.466796 -1.200193,0.275068 -2.26438,0.207806 -3.111328,-0.04883 1.426935,-1.076858 3.739465,-1.944753 5.480469,-1.716797 z m 8.183594,8.152344 c 0.869556,0.0868 1.699343,0.287014 2.529297,0.458985 -0.642681,0.526045 -1.498679,0.988999 -2.460938,1.109374 -0.675718,0.08453 -1.328598,0.02545 -1.820312,-0.173828 -0.367326,-0.148869 -0.615829,-0.390234 -0.806641,-0.699218 0.241231,-0.264879 0.484471,-0.508167 0.851563,-0.611328 0.475859,-0.133728 1.072311,-0.147342 1.707031,-0.08398 z" />
      </g>
    </g>
  </g>
</svg>
